[Header]
FileType HTR
DataType HTRS
FileVersion 1
NumSegments 48
NumFrames 4
DataFrameRate 30
EulerRotationOrder ZYX
CalibrationUnits mm
RotationUnits Degrees
GlobalAxisofGravity Y
BoneLengthAxis Y
ScaleFactor 1.0
[SegmentNames&Hierarchy]
Wolf	GLOBAL
Becken	Wolf
Bauch	Becken
Bauch_001	Bauch
Brust	Bauch_001
Hals	Brust
Kopf_002	Hals
Kopf	Kopf_002
Unterkiefer	Kopf
Hals_fett	Unterkiefer
Maulunten	Unterkiefer
Mauloben	Kopf
MundW_L	Kopf
MundW_R	Kopf
Augen_con	Kopf
IK_Aug_R	Augen_con
IK_Aug_L	Augen_con
Aug_R	Kopf
aug_L	Kopf
Ohr_L	Kopf
Ohr_R	Kopf
Braun_O_L	Kopf
Braun_O_R	Kopf
aug_lied_O_L	Kopf
aug_lied_O_R	Kopf
aug_lied_U_L	Kopf
aug_lied_U_R	Kopf
Bauch_003	Brust
Schalterplatte_L	Bauch_003
Oberarm_L	Schalterplatte_L
Unterarm_L	Oberarm_L
Vorderpfote_L	Unterarm_L
Schalterplatte_R	Bauch_003
Oberarm_R	Schalterplatte_R
Unterarm_R	Oberarm_R
Vorderpfote_R	Unterarm_R
Schwanz	Becken
Schwanz_001	Schwanz
Schwanz_002	Schwanz_001
Schwanz_003	Schwanz_002
Oberschenkel_L	Becken
Unterschenkel_L	Oberschenkel_L
Pfote1_L	Unterschenkel_L
Pfote2_L	Pfote1_L
Oberschenkel_R	Becken
Unterschenkel_R	Oberschenkel_R
Pfote1_R	Unterschenkel_R
Pfote2_R	Pfote1_R
[BasePosition]
Wolf	0	0	0	0	0	0	1
Becken	0	0	0	0	0	0	1
Bauch	0	0	0	0	0	0	1
Bauch_001	0	0	0	0	0	0	1
Brust	0	0	0	0	0	0	1
Hals	0	0	0	0	0	0	1
Kopf_002	0	0	0	0	0	0	1
Kopf	0	0	0	0	0	0	1
Unterkiefer	0	0	0	0	0	0	1
Hals_fett	0	0	0	0	0	0	1
Maulunten	0	0	0	0	0	0	1
Mauloben	0	0	0	0	0	0	1
MundW_L	0	0	0	0	0	0	1
MundW_R	0	0	0	0	0	0	1
Augen_con	0	0	0	0	0	0	1
IK_Aug_R	0	0	0	0	0	0	1
IK_Aug_L	0	0	0	0	0	0	1
Aug_R	0	0	0	0	0	0	1
aug_L	0	0	0	0	0	0	1
Ohr_L	0	0	0	0	0	0	1
Ohr_R	0	0	0	0	0	0	1
Braun_O_L	0	0	0	0	0	0	1
Braun_O_R	0	0	0	0	0	0	1
aug_lied_O_L	0	0	0	0	0	0	1
aug_lied_O_R	0	0	0	0	0	0	1
aug_lied_U_L	0	0	0	0	0	0	1
aug_lied_U_R	0	0	0	0	0	0	1
Bauch_003	0	0	0	0	0	0	1
Schalterplatte_L	0	0	0	0	0	0	1
Oberarm_L	0	0	0	0	0	0	1
Unterarm_L	0	0	0	0	0	0	1
Vorderpfote_L	0	0	0	0	0	0	1
Schalterplatte_R	0	0	0	0	0	0	1
Oberarm_R	0	0	0	0	0	0	1
Unterarm_R	0	0	0	0	0	0	1
Vorderpfote_R	0	0	0	0	0	0	1
Schwanz	0	0	0	0	0	0	1
Schwanz_001	0	0	0	0	0	0	1
Schwanz_002	0	0	0	0	0	0	1
Schwanz_003	0	0	0	0	0	0	1
Oberschenkel_L	0	0	0	0	0	0	1
Unterschenkel_L	0	0	0	0	0	0	1
Pfote1_L	0	0	0	0	0	0	1
Pfote2_L	0	0	0	0	0	0	1
Oberschenkel_R	0	0	0	0	0	0	1
Unterschenkel_R	0	0	0	0	0	0	1
Pfote1_R	0	0	0	0	0	0	1
Pfote2_R	0	0	0	0	0	0	1
[Wolf]
46	0	0	0	-90	-0	0	1.0
47	0	0	0	-90	-0	0	1.0
48	0	0	0	-90	-0	0	1.0
49	0	0	0	-90	-0	0	1.0
[Becken]
46	0	0.3770100474	-0.3336997628	-2.067962885	164.4212189	89.26520538	1.0
47	0	0.3841699958	-0.3460758924	-2.067962885	164.4212189	89.26520538	1.0
48	0	0.3892660141	-0.3548818529	-2.067962885	164.4212189	89.26520538	1.0
49	0	0.3922020197	-0.3599537909	-2.067962885	164.4212189	89.26520538	1.0
[Bauch]
46	0.9984878302	-0.00741992658	-0.150611341	-6.458931239e-07	12.60522842	-8.201818247e-08	1.0
47	0.9984878302	-0.00741992658	-0.150611341	-6.458931239e-07	12.60522842	-8.201818247e-08	1.0
48	0.9984878302	-0.00741992658	-0.150611341	-6.458931239e-07	12.60522842	-8.201818247e-08	1.0
49	0.9984878302	-0.00741992658	-0.150611341	-6.458931239e-07	12.60522842	-8.201818247e-08	1.0
[Bauch_001]
46	1.071342349	0.006600080058	-0.1893585622	-1.568805601e-07	2.360082865	-2.503413654e-08	1.0
47	1.071342349	0.006600080058	-0.1893585622	-1.568805601e-07	2.360082865	-2.503413654e-08	1.0
48	1.071342349	0.006600080058	-0.1893585622	-1.568805601e-07	2.360082865	-2.503413654e-08	1.0
49	1.071342349	0.006600080058	-0.1893585622	-1.568805601e-07	2.360082865	-2.503413654e-08	1.0
[Brust]
46	1.41907382	-0.01381989196	0.3623858392	3.618613846e-06	10.7627573	-4.096809789e-05	1.0
47	1.41907382	-0.01381989196	0.3623858392	3.618613846e-06	10.7627573	-4.096809789e-05	1.0
48	1.41907382	-0.01381989196	0.3623858392	3.618613846e-06	10.7627573	-4.096809789e-05	1.0
49	1.41907382	-0.01381989196	0.3623858392	3.618613846e-06	10.7627573	-4.096809789e-05	1.0
[Hals]
46	1.1844244	-0.01484991144	1.02827692	-4.51789947e-06	46.87745285	-2.16624926e-06	1.0
47	1.1844244	-0.01484991144	1.02827692	-4.51789947e-06	46.87745285	-2.16624926e-06	1.0
48	1.1844244	-0.01484991144	1.02827692	-4.51789947e-06	46.87745285	-2.16624926e-06	1.0
49	1.1844244	-0.01484991144	1.02827692	-4.51789947e-06	46.87745285	-2.16624926e-06	1.0
[Kopf_002]
46	1.75259161	3.012944944e-05	0.2651725411	0.006653842982	-165.1497192	0.002556535648	1.0
47	1.75259161	3.012944944e-05	0.2651725411	0.006653842982	-165.1497192	0.002556535648	1.0
48	1.75259161	3.012944944e-05	0.2651725411	0.006653842982	-165.1497192	0.002556535648	1.0
49	1.75259161	3.012944944e-05	0.2651725411	0.006653842982	-165.1497192	0.002556535648	1.0
[Kopf]
46	1.015781879	8.032657206e-08	9.111317922e-08	0.06872025877	123.2280426	-0.02605217695	1.0
47	1.015781879	8.032657206e-08	9.111317922e-08	0.06872025877	123.2280426	-0.02605217695	1.0
48	1.015781879	8.032657206e-08	9.111317922e-08	0.06872025877	123.2280426	-0.02605217695	1.0
49	1.015781879	8.032657206e-08	9.111317922e-08	0.06872025877	123.2280426	-0.02605217695	1.0
[Unterkiefer]
46	0.6370437145	0.004552738741	0.4060620368	5.412721157	-68.3888092	-3.09354353	1.0
47	0.6370437145	0.004552738741	0.4060620368	5.412721157	-68.3888092	-3.09354353	1.0
48	0.6370437145	0.004552738741	0.4060620368	5.412721157	-68.3888092	-3.09354353	1.0
49	0.6370437145	0.004552738741	0.4060620368	5.412721157	-68.3888092	-3.09354353	1.0
[Hals_fett]
46	0.2998299599	0.007747137919	0.1206380203	-5.071650982	-59.35961533	5.585566998	1.0
47	0.2998299599	0.007747137919	0.1206380203	-5.071650982	-59.35961533	5.585566998	1.0
48	0.2998299599	0.007747137919	0.1206380203	-5.071650982	-59.35961533	5.585566998	1.0
49	0.2998299599	0.007747137919	0.1206380203	-5.071650982	-59.35961533	5.585566998	1.0
[Maulunten]
46	0.08317943662	-0.007747350261	-0.1206459776	-3.32220912	38.97271347	-0.871876061	1.0
47	0.08317943662	-0.007747350261	-0.1206459776	-3.32220912	38.97271347	-0.871876061	1.0
48	0.08317943662	-0.007747350261	-0.1206459776	-3.32220912	38.97271347	-0.871876061	1.0
49	0.08317943662	-0.007747350261	-0.1206459776	-3.32220912	38.97271347	-0.871876061	1.0
[Mauloben]
46	0.910148263	0.0004056794569	0.4003701806	-0.1032674983	-28.77768707	0.03543139994	1.0
47	0.910148263	0.0004056794569	0.4003701806	-0.1032674983	-28.77768707	0.03543139994	1.0
48	0.910148263	0.0004056794569	0.4003701806	-0.1032674983	-28.77768707	0.03543139994	1.0
49	0.910148263	0.0004056794569	0.4003701806	-0.1032674983	-28.77768707	0.03543139994	1.0
[MundW_L]
46	0.673060894	-0.3618556261	0.3751286268	-179.8370972	-17.94884872	24.71397209	1.0
47	0.673060894	-0.3618556261	0.3751286268	-179.8370972	-17.94884872	24.71397209	1.0
48	0.673060894	-0.3618556261	0.3751286268	-179.8370972	-17.94884872	24.71397209	1.0
49	0.673060894	-0.3618556261	0.3751286268	-179.8370972	-17.94884872	24.71397209	1.0
[MundW_R]
46	0.6732318401	0.3627035022	0.37398085	179.6653442	-18.02427101	-24.69083977	1.0
47	0.6732318401	0.3627035022	0.37398085	179.6653442	-18.02427101	-24.69083977	1.0
48	0.6732318401	0.3627035022	0.37398085	179.6653442	-18.02427101	-24.69083977	1.0
49	0.6732318401	0.3627035022	0.37398085	179.6653442	-18.02427101	-24.69083977	1.0
[Augen_con]
46	1.807372689	-0.0001604028512	0.1835819334	0.09822253883	157.1545258	0.02385936864	1.0
47	1.807372689	-0.0001604028512	0.1835819334	0.09822253883	157.1545258	0.02385936864	1.0
48	1.807372689	-0.0001604028512	0.1835819334	0.09822253883	157.1545258	0.02385936864	1.0
49	1.807372689	-0.0001604028512	0.1835819334	0.09822253883	157.1545258	0.02385936864	1.0
[IK_Aug_R]
46	0.3461304307	0.2943200469	-8.032657206e-08	-0.4194762409	-4.963055134	165.6946411	1.0
47	0.3461304307	0.2943200469	-8.032657206e-08	-0.4194762409	-4.963055134	165.6946411	1.0
48	0.3461304307	0.2943200469	-8.032657206e-08	-0.4194762409	-4.963055134	165.6946411	1.0
49	0.3461304307	0.2943200469	-8.032657206e-08	-0.4194762409	-4.963055134	165.6946411	1.0
[IK_Aug_L]
46	0.3461307883	-0.2943199575	-1.629814861e-08	0.4194769561	-4.963055134	-165.6946411	1.0
47	0.3461307883	-0.2943199575	-1.629814861e-08	0.4194769561	-4.963055134	-165.6946411	1.0
48	0.3461307883	-0.2943199575	-1.629814861e-08	0.4194769561	-4.963055134	-165.6946411	1.0
49	0.3461307883	-0.2943199575	-1.629814861e-08	0.4194769561	-4.963055134	-165.6946411	1.0
[Aug_R]
46	1.0351547	0.2207805812	-0.09605748951	176.004776	-17.29163933	12.85548019	1.0
47	1.0351547	0.2207805812	-0.09605748951	176.004776	-17.29163933	12.85548019	1.0
48	1.0351547	0.2207805812	-0.09605748951	176.004776	-17.29163933	12.85548019	1.0
49	1.0351547	0.2207805812	-0.09605748951	176.004776	-17.29163933	12.85548019	1.0
[aug_L]
46	1.035044074	-0.2215988934	-0.09535883367	-176.1891022	-17.33178139	-12.83103275	1.0
47	1.035044074	-0.2215988934	-0.09535883367	-176.1891022	-17.33178139	-12.83103275	1.0
48	1.035044074	-0.2215988934	-0.09535883367	-176.1891022	-17.33178139	-12.83103275	1.0
49	1.035044074	-0.2215988934	-0.09535883367	-176.1891022	-17.33178139	-12.83103275	1.0
[Ohr_L]
46	0.6407760978	-0.3659991622	-0.6893320084	-24.34924507	53.07766342	-15.02013397	1.0
47	0.6407760978	-0.3659991622	-0.6893320084	-24.34924507	53.07766342	-15.02013397	1.0
48	0.6407760978	-0.3659991622	-0.6893320084	-24.34924507	53.07766342	-15.02013397	1.0
49	0.6407760978	-0.3659991622	-0.6893320084	-24.34924507	53.07766342	-15.02013397	1.0
[Ohr_R]
46	0.6409583092	0.3634999394	-0.6904845238	24.05786133	53.12416077	14.75857162	1.0
47	0.6409583092	0.3634999394	-0.6904845238	24.05786133	53.12416077	14.75857162	1.0
48	0.6409583092	0.3634999394	-0.6904845238	24.05786133	53.12416077	14.75857162	1.0
49	0.6409583092	0.3634999394	-0.6904845238	24.05786133	53.12416077	14.75857162	1.0
[Braun_O_L]
46	0.9801794291	-0.3706048727	-0.3292538524	-143.3172302	-34.69635391	52.39493942	1.0
47	0.9801794291	-0.3706048727	-0.3292538524	-143.3172302	-34.69635391	52.39493942	1.0
48	0.9801794291	-0.3706048727	-0.3292538524	-143.3172302	-34.69635391	52.39493942	1.0
49	0.9801794291	-0.3706048727	-0.3292538524	-143.3172302	-34.69635391	52.39493942	1.0
[Braun_O_R]
46	0.9803634882	0.3690741956	-0.3304223716	143.1826782	-34.83971786	-52.3467598	1.0
47	0.9803634882	0.3690741956	-0.3304223716	143.1826782	-34.83971786	-52.3467598	1.0
48	0.9803634882	0.3690741956	-0.3304223716	143.1826782	-34.83971786	-52.3467598	1.0
49	0.9803634882	0.3690741956	-0.3304223716	143.1826782	-34.83971786	-52.3467598	1.0
[aug_lied_O_L]
46	1.038881421	-0.3271433711	-0.1608108282	-175.8613434	-20.15596199	60.31666946	1.0
47	1.038881421	-0.3271433711	-0.1608108282	-175.8613434	-20.15596199	60.31666946	1.0
48	1.038881421	-0.3271433711	-0.1608108282	-175.8613434	-20.15596199	60.31666946	1.0
49	1.038881421	-0.3271433711	-0.1608108282	-175.8613434	-20.15596199	60.31666946	1.0
[aug_lied_O_R]
46	1.039044261	0.3261157274	-0.1618429124	175.7657928	-20.31323814	-60.31218338	1.0
47	1.039044261	0.3261157274	-0.1618429124	175.7657928	-20.31323814	-60.31218338	1.0
48	1.039044261	0.3261157274	-0.1618429124	175.7657928	-20.31323814	-60.31218338	1.0
49	1.039044261	0.3261157274	-0.1618429124	175.7657928	-20.31323814	-60.31218338	1.0
[aug_lied_U_L]
46	1.021915555	-0.3312865496	-0.1338484734	-159.8099365	-28.7482872	60.17461395	1.0
47	1.021915555	-0.3312865496	-0.1338484734	-159.8099365	-28.7482872	60.17461395	1.0
48	1.021915555	-0.3312865496	-0.1338484734	-159.8099365	-28.7482872	60.17461395	1.0
49	1.021915555	-0.3312865496	-0.1338484734	-159.8099365	-28.7482872	60.17461395	1.0
[aug_lied_U_R]
46	1.02207756	0.3303526342	-0.1348843277	159.7071381	-28.90532684	-60.15359116	1.0
47	1.02207756	0.3303526342	-0.1348843277	159.7071381	-28.90532684	-60.15359116	1.0
48	1.02207756	0.3303526342	-0.1348843277	159.7071381	-28.90532684	-60.15359116	1.0
49	1.02207756	0.3303526342	-0.1348843277	159.7071381	-28.90532684	-60.15359116	1.0
[Bauch_003]
46	1.444672227	0.03385011479	-1.56629622	-3.870021374e-06	-137.6799469	1.039222207e-05	1.0
47	1.444672227	0.03385011479	-1.56629622	-3.870021374e-06	-137.6799469	1.039222207e-05	1.0
48	1.444672227	0.03385011479	-1.56629622	-3.870021374e-06	-137.6799469	1.039222207e-05	1.0
49	1.444672227	0.03385011479	-1.56629622	-3.870021374e-06	-137.6799469	1.039222207e-05	1.0
[Schalterplatte_L]
46	0.9565289021	-0.3802126348	-0.08460558951	-97.8788681	71.62408447	-128.1881256	1.0
47	0.964241147	-0.3799079359	-0.094274804	-89.0592041	74.20613098	-118.7649155	1.0
48	0.9719535112	-0.3796032071	-0.1017692611	-82.7903595	75.47105408	-112.1897278	1.0
49	0.9775161147	-0.3792984784	-0.1067516506	-79.39585114	75.95586395	-108.6720657	1.0
[Oberarm_L]
46	1.418636918	9.313225746e-08	1.303851604e-07	-98.0223999	-64.99230194	118.4456024	1.0
47	1.418636918	9.313225746e-08	1.303851604e-07	-85.45176697	-65.50190735	103.4678192	1.0
48	1.418636918	9.313225746e-08	1.303851604e-07	-76.19179535	-65.12110901	92.44248962	1.0
49	1.418636918	9.313225746e-08	1.303851604e-07	-70.98225403	-64.60864258	86.22132111	1.0
[Unterarm_L]
46	2.028227806	1.885928214e-07	1.862644972e-08	56.39057541	82.02586365	57.77116776	1.0
47	2.028227806	1.885928214e-07	1.862644972e-08	32.23456192	79.49272156	32.92445755	1.0
48	2.028227806	1.885928214e-07	1.862644972e-08	19.62840843	76.21298218	20.21721649	1.0
49	2.028227806	1.885928214e-07	1.862644972e-08	14.34712887	73.80718994	15.03474236	1.0
[Vorderpfote_L]
46	1.705947399	2.607703209e-07	2.305023372e-07	-23.77038383	20.467659	-5.245244026	1.0
47	1.705947399	2.607703209e-07	2.305023372e-07	-16.63221169	40.93930054	-5.943585396	1.0
48	1.705947399	2.607703209e-07	2.305023372e-07	-8.889133453	55.91832733	-3.460793734	1.0
49	1.705947399	2.607703209e-07	2.305023372e-07	-2.770038843	64.52370453	-0.2085100114	1.0
[Schalterplatte_R]
46	1.04740572	0.3995534182	0.1388406456	9.189156532	72.01077271	38.94033051	1.0
47	1.07498312	0.4017445147	0.1565026939	9.008983612	71.96166229	38.8404541	1.0
48	1.099581957	0.4039356411	0.1712801307	8.860690117	71.91923523	38.75459671	1.0
49	1.117278457	0.4061267376	0.1815239191	8.759624481	71.88884735	38.6933136	1.0
[Oberarm_R]
46	1.418636441	2.235174179e-07	1.490116119e-07	88.49368286	-60.69157028	-106.0231323	1.0
47	1.418636441	2.235174179e-07	1.490116119e-07	89.77053833	-60.60310364	-107.5486832	1.0
48	1.418636441	2.235174179e-07	1.490116119e-07	90.78599548	-60.52054977	-108.7653351	1.0
49	1.418636441	2.235174179e-07	1.490116119e-07	91.44884491	-60.46063614	-109.5613785	1.0
[Unterarm_R]
46	2.028232098	1.350417733e-07	-7.450580597e-08	-5.508297443	58.15158081	-5.852816582	1.0
47	2.028232098	1.350417733e-07	-7.450580597e-08	-5.697943211	58.47746277	-6.052708626	1.0
48	2.028232098	1.350417733e-07	-7.450580597e-08	-5.853925228	58.73198318	-6.217328072	1.0
49	2.028232098	1.350417733e-07	-7.450580597e-08	-5.958267689	58.89464569	-6.327579021	1.0
[Vorderpfote_R]
46	1.705937624	9.313230187e-09	7.101335342e-08	0.8549782634	95.16461945	0.5246856213	1.0
47	1.705937624	9.313230187e-09	7.101335342e-08	1.027461529	95.47202301	0.6986595392	1.0
48	1.705937624	9.313230187e-09	7.101335342e-08	1.159039378	95.71617126	0.8313747644	1.0
49	1.705937624	9.313230187e-09	7.101335342e-08	1.242923021	95.87495422	0.9159725904	1.0
[Schwanz]
46	-0.1558269262	-1.338776023e-08	0.09658005089	0.1709654629	-125.0979233	-0.5364538431	1.0
47	-0.1631928384	-1.338776023e-08	0.0999134928	0.1843919754	-125.5376892	-0.5898830891	1.0
48	-0.1684310287	-1.338776023e-08	0.1032469422	0.1935494393	-125.8504715	-0.627536118	1.0
49	-0.1714505553	-1.338776023e-08	0.1053360999	0.1986584365	-126.0306168	-0.6490769386	1.0
[Schwanz_001]
46	0.9104326963	6.926712359e-08	1.564329999e-09	-0.552333951	-12.00897121	0.4905405641	1.0
47	0.9104326963	6.926712359e-08	1.564329999e-09	-0.5391955376	-12.5169754	0.4749570489	1.0
48	0.9104326963	6.926712359e-08	1.564329999e-09	-0.5297726989	-12.87826729	0.4638040364	1.0
49	0.9104326963	6.926712359e-08	1.564329999e-09	-0.5243124366	-13.08635807	0.4573504925	1.0
[Schwanz_002]
46	0.7855662704	6.053597446e-08	1.369335223e-07	-0.1259131581	-12.75482464	0.09631445259	1.0
47	0.7855662704	6.053597446e-08	1.369335223e-07	-0.08131727576	-12.38643169	0.06210577488	1.0
48	0.7855662704	6.053597446e-08	1.369335223e-07	-0.0419887118	-12.05978966	0.03202604502	1.0
49	0.7855662704	6.053597446e-08	1.369335223e-07	-0.01392106339	-11.82578373	0.01060459018	1.0
[Schwanz_003]
46	0.8350353241	6.286426668e-08	8.163624443e-08	-0.5208166838	-20.07157516	0.6128768325	1.0
47	0.8350353241	6.286426668e-08	8.163624443e-08	-0.6690630913	-23.5064621	0.7609628439	1.0
48	0.8350353241	6.286426668e-08	8.163624443e-08	-0.7804899812	-25.93661308	0.8722784519	1.0
49	0.8350353241	6.286426668e-08	8.163624443e-08	-0.8472797871	-27.33067131	0.9390054941	1.0
[Oberschenkel_L]
46	0.5183432102	-0.5837000012	0.1123731211	20.11560631	-70.49850464	-15.12903595	1.0
47	0.4944306016	-0.5837000012	0.1167861447	20.89828491	-71.42634583	-15.95637798	1.0
48	0.4774284065	-0.5837000012	0.1190651879	21.81083679	-72.39785004	-16.91577339	1.0
49	0.4676375985	-0.5837000012	0.1206329018	22.22341728	-72.82767487	-17.34908867	1.0
[Unterschenkel_L]
46	1.686438918	1.098557689e-07	4.298409628e-09	-78.51499939	-77.73309326	86.0592804	1.0
47	1.686438918	1.094318947e-07	4.393929665e-09	-74.32514191	-77.5871582	81.71899414	1.0
48	1.686438918	1.090080204e-07	4.489449701e-09	-69.61168671	-77.33137512	76.85700989	1.0
49	1.686438918	1.085841532e-07	4.584969737e-09	-72.99816895	-77.47412109	80.26816559	1.0
[Pfote1_L]
46	1.190900326	1.561756164e-07	-1.008335815e-07	1.630506277	41.93244553	-6.955597878	1.0
47	1.190900326	1.567487402e-07	-9.940077206e-08	1.890071869	38.43452072	-6.549940109	1.0
48	1.190900326	1.57321864e-07	-9.796796974e-08	2.081278324	35.49039459	-6.23287487	1.0
49	1.190900326	1.578949878e-07	-9.653517452e-08	2.180820704	33.83195114	-6.061519146	1.0
[Pfote2_L]
46	0.9876254797	9.277405866e-08	-3.868570886e-08	26.21722412	103.4431534	20.7276268	1.0
47	0.9876254797	9.100693887e-08	-3.706186291e-08	29.11620903	102.0835876	23.69343185	1.0
48	0.9876254797	8.923980488e-08	-3.543801697e-08	32.72819519	100.7090454	27.38102531	1.0
49	0.9876254797	8.747267799e-08	-3.381417457e-08	33.89888	100.4850998	28.51888847	1.0
[Oberschenkel_R]
46	0.6789165139	0.5837000608	0.02324563637	-10.27078152	-26.94954872	2.979921818	1.0
47	0.7014030814	0.5837000608	0.04226798192	-10.28279686	-27.18068504	3.006302595	1.0
48	0.720133841	0.5837000608	0.05930756778	-10.30408478	-27.58241463	3.052460909	1.0
49	0.7330965996	0.5837000608	0.0715925619	-10.3249836	-27.9715023	3.097382069	1.0
[Unterschenkel_R]
46	1.686449051	1.11758709e-07	3.725289943e-08	-42.03263092	-116.5748978	25.10917473	1.0
47	1.686449051	1.11758709e-07	3.725289943e-08	-44.04890442	-115.0034943	27.69184303	1.0
48	1.686449051	1.11758709e-07	3.725289943e-08	-46.4028244	-113.5158157	30.55647469	1.0
49	1.686449051	1.11758709e-07	3.725289943e-08	-48.41592407	-112.4086609	32.93770981	1.0
[Pfote1_R]
46	1.190900326	2.176966518e-07	1.11758709e-07	-4.101595879	55.99575806	3.364967346	1.0
47	1.190900326	2.176966518e-07	1.11758709e-07	-4.281465054	57.16114426	3.149836302	1.0
48	1.190900326	2.176966518e-07	1.11758709e-07	-4.439781666	58.12702942	2.962424755	1.0
49	1.190900326	2.176966518e-07	1.11758709e-07	-4.551474571	58.78019714	2.831115961	1.0
[Pfote2_R]
46	0.9876256585	1.024454832e-07	-4.656610209e-09	-72.05973053	101.0686493	-59.8844223	1.0
47	0.9876256585	1.024454832e-07	-4.656610209e-09	-76.56224823	100.2459946	-64.57041168	1.0
48	0.9876256585	1.024454832e-07	-4.656610209e-09	-81.04366302	99.54814911	-69.22145844	1.0
49	0.9876256585	1.024454832e-07	-4.656610209e-09	-84.50423431	99.0686264	-72.80715942	1.0
[EndOfFile]
